<svg width="102" height="107" viewBox="0 0 102 107" fill="none" xmlns="http://www.w3.org/2000/svg">
<path d="M62.0976 40.0708H55.1392L52.9886 33.4528C52.8272 32.9559 52.3643 32.6198 51.842 32.6198C51.3197 32.6198 50.8568 32.9561 50.6955 33.4528L48.5451 40.0708H41.5865C41.0642 40.0708 40.6012 40.4071 40.4399 40.9039C40.2786 41.4006 40.4553 41.9448 40.8778 42.2517L46.5076 46.342L44.3572 52.9604C44.1959 53.4571 44.3727 54.0011 44.7951 54.3083C45.2178 54.6152 45.79 54.6152 46.2125 54.3083L51.842 50.2178L57.4716 54.3083C57.8942 54.615 58.4662 54.6157 58.8889 54.3083C59.3116 54.0013 59.4883 53.4571 59.3268 52.9604L57.1767 46.342L62.8065 42.2517C63.2289 41.9448 63.4057 41.4006 63.2441 40.9039C63.0828 40.4069 62.6198 40.0708 62.0976 40.0708ZM55.0507 44.9061C54.6282 45.213 54.4515 45.7572 54.613 46.2539L55.8871 50.1763L52.5509 47.7523C52.128 47.4453 51.556 47.4453 51.1336 47.7523L47.7971 50.1763L49.0715 46.2539C49.2328 45.7572 49.056 45.213 48.6336 44.9061L45.2971 42.4818H49.4213C49.9439 42.4818 50.4063 42.1454 50.5679 41.6487L51.842 37.7265L53.1166 41.6489C53.2779 42.1459 53.7409 42.482 54.2631 42.482H58.3874L55.0507 44.9061Z" fill="#4B61C4"/>
<path d="M67.5153 15.6736H36.169C35.5033 15.6736 34.9634 16.2135 34.9634 16.8792C34.9634 17.545 35.5033 18.0849 36.169 18.0849H67.5153C68.1813 18.0849 68.7209 17.545 68.7209 16.8792C68.7209 16.2133 68.1813 15.6736 67.5153 15.6736Z" fill="#4B61C4"/>
<path d="M65.1034 20.4962H38.5797C37.9139 20.4962 37.374 21.036 37.374 21.7018C37.374 22.3675 37.9139 22.9074 38.5797 22.9074H65.1034C65.7694 22.9074 66.3091 22.3675 66.3091 21.7018C66.3091 21.0358 65.7694 20.4962 65.1034 20.4962Z" fill="#4B61C4"/>
<path d="M62.6928 25.3184H40.9915C40.3258 25.3184 39.7859 25.8583 39.7859 26.524C39.7859 27.1898 40.3258 27.7297 40.9915 27.7297H62.6928C63.3588 27.7297 63.8984 27.1898 63.8984 26.524C63.8984 25.8583 63.3588 25.3184 62.6928 25.3184Z" fill="#4B61C4"/>
<path d="M56.6641 79.5714C57.33 79.5714 57.8697 79.0316 57.8697 78.3658C57.8697 77.6999 57.33 77.1601 56.6641 77.1601C55.9983 77.1601 55.4585 77.6999 55.4585 78.3658C55.4585 79.0316 55.9983 79.5714 56.6641 79.5714Z" fill="#4B61C4"/>
<path d="M10.2479 92.8333C11.2467 92.8333 12.0563 92.0236 12.0563 91.0248C12.0563 90.026 11.2467 89.2164 10.2479 89.2164C9.24912 89.2164 8.43945 90.026 8.43945 91.0248C8.43945 92.0236 9.24912 92.8333 10.2479 92.8333Z" fill="#4B61C4"/>
<path d="M93.4359 91.6276C94.4347 91.6276 95.2443 90.818 95.2443 89.8192C95.2443 88.8204 94.4347 88.0107 93.4359 88.0107C92.4371 88.0107 91.6274 88.8204 91.6274 89.8192C91.6274 90.818 92.4371 91.6276 93.4359 91.6276Z" fill="#4B61C4"/>
<path d="M77.7628 69.9264C78.7616 69.9264 79.5712 69.1167 79.5712 68.1179C79.5712 67.1192 78.7616 66.3095 77.7628 66.3095C76.764 66.3095 75.9543 67.1192 75.9543 68.1179C75.9543 69.1167 76.764 69.9264 77.7628 69.9264Z" fill="#4B61C4"/>
<path d="M95.8473 28.935C96.846 28.935 97.6557 28.1253 97.6557 27.1266C97.6557 26.1278 96.846 25.3181 95.8473 25.3181C94.8485 25.3181 94.0388 26.1278 94.0388 27.1266C94.0388 28.1253 94.8485 28.935 95.8473 28.935Z" fill="#4B61C4"/>
<path d="M82.5853 3.61688C83.5841 3.61688 84.3937 2.80721 84.3937 1.80844C84.3937 0.809666 83.5841 0 82.5853 0C81.5865 0 80.7769 0.809666 80.7769 1.80844C80.7769 2.80721 81.5865 3.61688 82.5853 3.61688Z" fill="#4B61C4"/>
<path d="M15.0704 4.82251C16.0692 4.82251 16.8788 4.01284 16.8788 3.01407C16.8788 2.01529 16.0692 1.20563 15.0704 1.20563C14.0716 1.20563 13.262 2.01529 13.262 3.01407C13.262 4.01284 14.0716 4.82251 15.0704 4.82251Z" fill="#4B61C4"/>
<path d="M3.01401 27.7294C4.01278 27.7294 4.82245 26.9197 4.82245 25.9209C4.82245 24.9222 4.01278 24.1125 3.01401 24.1125C2.01523 24.1125 1.20557 24.9222 1.20557 25.9209C1.20557 26.9197 2.01523 27.7294 3.01401 27.7294Z" fill="#4B61C4"/>
<path d="M18.6873 45.8138C19.6861 45.8138 20.4958 45.0041 20.4958 44.0053C20.4958 43.0066 19.6861 42.1969 18.6873 42.1969C17.6886 42.1969 16.8789 43.0066 16.8789 44.0053C16.8789 45.0041 17.6886 45.8138 18.6873 45.8138Z" fill="#4B61C4"/>
<path d="M85.5996 14.468H74.749V8.43988C74.749 7.77413 74.2094 7.23425 73.5434 7.23425H66.3096V3.61737C66.3096 2.95162 65.77 2.41174 65.104 2.41174H38.5802C37.9144 2.41174 37.3746 2.95162 37.3746 3.61737V7.23425H30.1408C29.4751 7.23425 28.9352 7.77413 28.9352 8.43988V14.468H18.0845C17.4188 14.468 16.8789 15.0079 16.8789 15.6736V27.7299C16.8789 34.636 22.1858 40.3232 28.9352 40.9344V42.4386C28.9352 49.8541 32.5518 56.8448 38.6096 61.1383C42.2106 63.6906 43.6911 68.3345 42.3145 72.5792H37.3746C36.7088 72.5792 36.1689 73.1189 36.1689 73.7849V81.9831C32.7107 81.9831 28.1513 81.9831 24.1127 81.9831C23.4469 81.9831 22.907 82.5228 22.907 83.1888C22.907 83.8545 23.4469 84.3944 24.1127 84.3944H26.5239V103.684H24.1127C23.4469 103.684 22.907 104.224 22.907 104.89C22.907 105.556 23.4469 106.096 24.1127 106.096H27.7295C29.8088 106.096 77.7978 106.096 79.5715 106.096C80.2375 106.096 80.7771 105.556 80.7771 104.89C80.7771 104.224 80.2375 103.684 79.5715 103.684H77.1603V84.3944H79.5715C80.2375 84.3944 80.7771 83.8545 80.7771 83.1888C80.7771 82.5228 80.2375 81.9831 79.5715 81.9831C75.897 81.9831 71.4087 81.9831 67.5152 81.9831V73.7849C67.5152 73.1189 66.9756 72.5792 66.3096 72.5792H62.0499C60.4532 68.3477 61.8539 63.5677 65.5858 60.7653C71.4089 56.3918 74.749 49.7119 74.749 42.4383V40.9342C81.4983 40.3227 86.8053 34.6355 86.8053 27.7297V15.6734C86.8053 15.0077 86.2656 14.468 85.5996 14.468ZM84.394 16.8793V19.2905H74.749V16.8793H84.394ZM39.7858 4.82276H63.8984V7.23401H39.7858V4.82276ZM28.9352 16.8793V19.2905H19.2902V16.8793H28.9352ZM19.2902 27.7297V21.7015H28.9352V38.5138C23.5176 37.9122 19.2902 33.3052 19.2902 27.7297ZM28.9352 103.684V91.6281H74.749V103.684H28.9352ZM74.749 89.2169H28.9352V84.3944C34.2857 84.3944 67.3098 84.3944 74.749 84.3944V89.2169ZM65.104 81.9831H38.5802V79.5719H53.0477C53.7137 79.5719 54.2533 79.032 54.2533 78.3662C54.2533 77.7003 53.7137 77.1606 53.0477 77.1606H38.5802V74.9905C46.4655 74.9905 56.4367 74.9905 65.104 74.9905V81.9831ZM72.3377 42.4383C72.3377 48.9461 69.3488 54.9233 64.1376 58.837C59.7857 62.1052 58.0084 67.5672 59.5036 72.579H44.8261C46.1308 67.5443 44.2582 62.1863 40.0038 59.1707C34.5828 55.3286 31.3464 49.0736 31.3464 42.4383C31.3464 38.3744 31.3464 13.8365 31.3464 9.64526C41.0713 9.64526 63.7913 9.64526 72.3377 9.64526C72.3377 16.702 72.3377 35.4819 72.3377 42.4383ZM74.749 38.514V21.7018H84.394V27.7299C84.394 33.3052 80.1668 37.9122 74.749 38.514Z" fill="#4B61C4"/>
<path d="M9.64501 59.0762C4.32675 59.0762 0 63.4027 0 68.7212C0 74.0394 4.32675 78.3662 9.64501 78.3662C14.9633 78.3662 19.29 74.0394 19.29 68.7212C19.29 63.4027 14.9633 59.0762 9.64501 59.0762ZM9.64501 75.9549C5.65632 75.9549 2.41125 72.7099 2.41125 68.7212C2.41125 64.7325 5.65632 61.4874 9.64501 61.4874C13.6337 61.4874 16.8788 64.7325 16.8788 68.7212C16.8788 72.7099 13.6337 75.9549 9.64501 75.9549Z" fill="#4B61C4"/>
<path d="M94.6414 42.1972C90.9853 42.1972 88.0105 45.1717 88.0105 48.8282C88.0105 52.4846 90.9853 55.4593 94.6414 55.4593C98.2976 55.4593 101.272 52.4846 101.272 48.8282C101.272 45.172 98.2976 42.1972 94.6414 42.1972ZM94.6414 53.0481C92.3148 53.0481 90.4218 51.155 90.4218 48.8282C90.4218 46.5013 92.3148 44.6085 94.6414 44.6085C96.9681 44.6085 98.8611 46.5015 98.8611 48.8282C98.8611 51.1548 96.9681 53.0481 94.6414 53.0481Z" fill="#4B61C4"/>
</svg>
