<svg width="25" height="27" viewBox="0 0 25 27" fill="none" xmlns="http://www.w3.org/2000/svg">
<path d="M15.2737 9.85593H13.5622L13.0332 8.22816C12.9935 8.10593 12.8797 8.02325 12.7512 8.02325C12.6228 8.02325 12.5089 8.10598 12.4692 8.22816L11.9403 9.85593H10.2287C10.1003 9.85593 9.98639 9.93866 9.94671 10.0608C9.90704 10.183 9.95051 10.3169 10.0544 10.3924L11.4391 11.3984L10.9102 13.0263C10.8706 13.1485 10.914 13.2823 11.0179 13.3578C11.1219 13.4333 11.2626 13.4333 11.3665 13.3578L12.7512 12.3517L14.1359 13.3578C14.2398 13.4333 14.3805 13.4334 14.4845 13.3578C14.5885 13.2823 14.6319 13.1485 14.5922 13.0263L14.0633 11.3984L15.4481 10.3924C15.552 10.3169 15.5954 10.183 15.5557 10.0608C15.516 9.9386 15.4022 9.85593 15.2737 9.85593ZM13.5404 11.0452C13.4365 11.1207 13.393 11.2546 13.4328 11.3768L13.7462 12.3415L12.9256 11.7453C12.8216 11.6698 12.6809 11.6698 12.577 11.7453L11.7563 12.3415L12.0698 11.3768C12.1094 11.2546 12.066 11.1207 11.9621 11.0452L11.1414 10.4489H12.1558C12.2843 10.4489 12.3981 10.3662 12.4378 10.244L12.7512 9.27934L13.0647 10.2441C13.1044 10.3663 13.2183 10.449 13.3467 10.449H14.3611L13.5404 11.0452Z" fill="white"/>
<path d="M16.6062 3.85514H8.89615C8.7324 3.85514 8.59961 3.98793 8.59961 4.15168C8.59961 4.31543 8.7324 4.44822 8.89615 4.44822H16.6062C16.77 4.44822 16.9027 4.31543 16.9027 4.15168C16.9027 3.98787 16.77 3.85514 16.6062 3.85514Z" fill="white"/>
<path d="M16.0131 5.04131H9.48923C9.32548 5.04131 9.19269 5.1741 9.19269 5.33785C9.19269 5.5016 9.32548 5.63439 9.48923 5.63439H16.0131C16.1769 5.63439 16.3097 5.5016 16.3097 5.33785C16.3097 5.17404 16.1769 5.04131 16.0131 5.04131Z" fill="white"/>
<path d="M15.4201 6.2274H10.0824C9.91862 6.2274 9.78583 6.36019 9.78583 6.52394C9.78583 6.68769 9.91862 6.82048 10.0824 6.82048H15.4201C15.5839 6.82048 15.7166 6.68769 15.7166 6.52394C15.7166 6.36019 15.5839 6.2274 15.4201 6.2274Z" fill="white"/>
<path d="M13.9373 19.5717C14.1011 19.5717 14.2338 19.4389 14.2338 19.2751C14.2338 19.1113 14.1011 18.9786 13.9373 18.9786C13.7735 18.9786 13.6407 19.1113 13.6407 19.2751C13.6407 19.4389 13.7735 19.5717 13.9373 19.5717Z" fill="white"/>
<path d="M2.52062 22.8336C2.76628 22.8336 2.96543 22.6344 2.96543 22.3888C2.96543 22.1431 2.76628 21.944 2.52062 21.944C2.27495 21.944 2.07581 22.1431 2.07581 22.3888C2.07581 22.6344 2.27495 22.8336 2.52062 22.8336Z" fill="white"/>
<path d="M22.9818 22.537C23.2275 22.537 23.4266 22.3379 23.4266 22.0922C23.4266 21.8466 23.2275 21.6474 22.9818 21.6474C22.7361 21.6474 22.537 21.8466 22.537 22.0922C22.537 22.3379 22.7361 22.537 22.9818 22.537Z" fill="white"/>
<path d="M19.1268 17.1993C19.3725 17.1993 19.5716 17.0002 19.5716 16.7545C19.5716 16.5089 19.3725 16.3097 19.1268 16.3097C18.8812 16.3097 18.682 16.5089 18.682 16.7545C18.682 17.0002 18.8812 17.1993 19.1268 17.1993Z" fill="white"/>
<path d="M23.5749 7.11696C23.8205 7.11696 24.0197 6.91781 24.0197 6.67215C24.0197 6.42649 23.8205 6.22734 23.5749 6.22734C23.3292 6.22734 23.1301 6.42649 23.1301 6.67215C23.1301 6.91781 23.3292 7.11696 23.5749 7.11696Z" fill="white"/>
<path d="M20.313 0.88962C20.5586 0.88962 20.7578 0.690472 20.7578 0.44481C20.7578 0.199148 20.5586 0 20.313 0C20.0673 0 19.8682 0.199148 19.8682 0.44481C19.8682 0.690472 20.0673 0.88962 20.313 0.88962Z" fill="white"/>
<path d="M3.70671 1.18616C3.95237 1.18616 4.15152 0.987015 4.15152 0.741353C4.15152 0.495691 3.95237 0.296543 3.70671 0.296543C3.46105 0.296543 3.2619 0.495691 3.2619 0.741353C3.2619 0.987015 3.46105 1.18616 3.70671 1.18616Z" fill="white"/>
<path d="M0.741319 6.82042C0.986981 6.82042 1.18613 6.62127 1.18613 6.37561C1.18613 6.12995 0.986981 5.9308 0.741319 5.9308C0.495657 5.9308 0.296509 6.12995 0.296509 6.37561C0.296509 6.62127 0.495657 6.82042 0.741319 6.82042Z" fill="white"/>
<path d="M4.59636 11.2685C4.84202 11.2685 5.04117 11.0694 5.04117 10.8237C5.04117 10.578 4.84202 10.3789 4.59636 10.3789C4.3507 10.3789 4.15155 10.578 4.15155 10.8237C4.15155 11.0694 4.3507 11.2685 4.59636 11.2685Z" fill="white"/>
<path d="M21.0543 3.55859H18.3855V2.07589C18.3855 1.91214 18.2527 1.77935 18.0889 1.77935H16.3097V0.889729C16.3097 0.72598 16.177 0.593189 16.0132 0.593189H9.48927C9.32552 0.593189 9.19273 0.72598 9.19273 0.889729V1.77935H7.41349C7.24974 1.77935 7.11695 1.91214 7.11695 2.07589V3.55859H4.44809C4.28434 3.55859 4.15155 3.69138 4.15155 3.85513V6.82053C4.15155 8.51917 5.45686 9.91801 7.11695 10.0684V10.4383C7.11695 12.2623 8.00651 13.9817 9.49651 15.0378C10.3822 15.6656 10.7464 16.8078 10.4078 17.8518H9.19273C9.02898 17.8518 8.89619 17.9846 8.89619 18.1484V20.1648C8.0456 20.1648 6.92414 20.1648 5.93079 20.1648C5.76704 20.1648 5.63425 20.2976 5.63425 20.4614C5.63425 20.6251 5.76704 20.7579 5.93079 20.7579H6.52387V25.5026H5.93079C5.76704 25.5026 5.63425 25.6353 5.63425 25.7991C5.63425 25.9629 5.76704 26.0956 5.93079 26.0956H6.82041C7.33182 26.0956 19.1354 26.0956 19.5716 26.0956C19.7354 26.0956 19.8682 25.9629 19.8682 25.7991C19.8682 25.6353 19.7354 25.5026 19.5716 25.5026H18.9786V20.7579H19.5716C19.7354 20.7579 19.8682 20.6251 19.8682 20.4614C19.8682 20.2976 19.7354 20.1648 19.5716 20.1648C18.6678 20.1648 17.5639 20.1648 16.6062 20.1648V18.1484C16.6062 17.9846 16.4735 17.8518 16.3097 17.8518H15.262C14.8692 16.811 15.2137 15.6353 16.1317 14.946C17.5639 13.8703 18.3855 12.2273 18.3855 10.4383V10.0683C20.0456 9.91789 21.3509 8.51906 21.3509 6.82047V3.85507C21.3509 3.69132 21.2181 3.55859 21.0543 3.55859ZM20.7578 4.15167V4.74475H18.3855V4.15167H20.7578ZM9.78581 1.18621H15.7166V1.77929H9.78581V1.18621ZM7.11695 4.15167V4.74475H4.74463V4.15167H7.11695ZM4.74463 6.82047V5.33777H7.11695V9.47297C5.78442 9.32499 4.74463 8.19185 4.74463 6.82047ZM7.11695 25.5026V22.5372H18.3855V25.5026H7.11695ZM18.3855 21.9441H7.11695V20.7579C8.433 20.7579 16.5557 20.7579 18.3855 20.7579V21.9441ZM16.0132 20.1648H9.48927V19.5718H13.0478C13.2116 19.5718 13.3443 19.439 13.3443 19.2752C13.3443 19.1114 13.2116 18.9787 13.0478 18.9787H9.48927V18.4449C11.4288 18.4449 13.8813 18.4449 16.0132 18.4449V20.1648ZM17.7924 10.4383C17.7924 12.0389 17.0572 13.5091 15.7754 14.4717C14.7051 15.2756 14.2679 16.6191 14.6357 17.8518H11.0255C11.3464 16.6134 10.8859 15.2955 9.83943 14.5538C8.50606 13.6088 7.71003 12.0703 7.71003 10.4383C7.71003 9.43869 7.71003 3.40326 7.71003 2.37237C10.102 2.37237 15.6903 2.37237 17.7924 2.37237C17.7924 4.10808 17.7924 8.72723 17.7924 10.4383ZM18.3855 9.47302V5.33783H20.7578V6.82053C20.7578 8.19185 19.7181 9.32499 18.3855 9.47302Z" fill="white"/>
<path d="M2.37232 14.5306C1.06422 14.5306 0 15.5948 0 16.9029C0 18.211 1.06422 19.2752 2.37232 19.2752C3.68042 19.2752 4.74464 18.211 4.74464 16.9029C4.74464 15.5948 3.68042 14.5306 2.37232 14.5306ZM2.37232 18.6822C1.39125 18.6822 0.59308 17.884 0.59308 16.9029C0.59308 15.9218 1.39125 15.1237 2.37232 15.1237C3.35339 15.1237 4.15156 15.9218 4.15156 16.9029C4.15156 17.884 3.35339 18.6822 2.37232 18.6822Z" fill="white"/>
<path d="M23.2784 10.379C22.3791 10.379 21.6474 11.1106 21.6474 12.0099C21.6474 12.9093 22.3791 13.641 23.2784 13.641C24.1777 13.641 24.9093 12.9093 24.9093 12.0099C24.9093 11.1107 24.1777 10.379 23.2784 10.379ZM23.2784 13.0479C22.7061 13.0479 22.2405 12.5823 22.2405 12.0099C22.2405 11.4376 22.7061 10.972 23.2784 10.972C23.8506 10.972 24.3163 11.4377 24.3163 12.0099C24.3163 12.5822 23.8506 13.0479 23.2784 13.0479Z" fill="white"/>
</svg>
