<svg width="18" height="18" viewBox="0 0 18 18" fill="none" xmlns="http://www.w3.org/2000/svg">
<path d="M9 6.12584C8.43189 6.12584 7.87654 6.29426 7.40417 6.60981C6.93181 6.92536 6.56364 7.37386 6.34623 7.8986C6.12883 8.42334 6.07194 9.00075 6.18278 9.55781C6.29361 10.1149 6.56718 10.6266 6.9689 11.0282C7.37061 11.4298 7.88243 11.7033 8.43962 11.8141C8.99681 11.9249 9.57436 11.868 10.0992 11.6507C10.6241 11.4333 11.0727 11.0653 11.3883 10.593C11.704 10.1208 11.8724 9.56553 11.8724 8.99756C11.8724 8.23593 11.5698 7.5055 11.0311 6.96695C10.4924 6.42839 9.76181 6.12584 9 6.12584V6.12584ZM9 10.3736C8.72778 10.3736 8.46167 10.2929 8.23533 10.1417C8.00899 9.99049 7.83258 9.77558 7.7284 9.52415C7.62423 9.27271 7.59697 8.99603 7.65008 8.72911C7.70319 8.46219 7.83427 8.217 8.02676 8.02456C8.21925 7.83212 8.4645 7.70106 8.73148 7.64797C8.99847 7.59487 9.27521 7.62212 9.52671 7.72627C9.77821 7.83042 9.99317 8.00679 10.1444 8.23308C10.2956 8.45936 10.3764 8.72541 10.3764 8.99756C10.3764 9.36251 10.2314 9.71251 9.97324 9.97056C9.71512 10.2286 9.36503 10.3736 9 10.3736V10.3736ZM17.3255 10.3736C16.991 10.3384 16.6813 10.1806 16.4562 9.93066C16.2312 9.68071 16.1066 9.35631 16.1066 9.02C16.1066 8.68369 16.2312 8.35928 16.4562 8.10934C16.6813 7.85939 16.991 7.7016 17.3255 7.6664C17.4306 7.65292 17.5316 7.61729 17.6219 7.56185C17.7121 7.50641 17.7896 7.43244 17.8491 7.34482C17.9103 7.26061 17.9532 7.16457 17.9751 7.06284C17.997 6.96111 17.9974 6.85593 17.9763 6.75403C17.7576 5.89743 17.4175 5.07648 16.9665 4.31605C16.9123 4.22519 16.8395 4.14684 16.7529 4.08617C16.6662 4.02551 16.5677 3.98391 16.4638 3.96412C16.3599 3.94433 16.2529 3.9468 16.15 3.97137C16.0471 3.99594 15.9506 4.04205 15.8669 4.10666C15.6054 4.31868 15.2747 4.42635 14.9385 4.40888C14.6024 4.39141 14.2846 4.25004 14.0465 4.01207C13.8085 3.77409 13.6671 3.45638 13.6496 3.12029C13.6322 2.78419 13.7399 2.45354 13.9519 2.19217C14.0165 2.10844 14.0627 2.01195 14.0872 1.90908C14.1118 1.80622 14.1143 1.69931 14.0945 1.59541C14.0747 1.49152 14.0331 1.39301 13.9724 1.30637C13.9117 1.21974 13.8334 1.14696 13.7425 1.09284C12.9783 0.619086 12.1493 0.258851 11.2815 0.0234228C11.1789 -0.00286987 11.0719 -0.00708208 10.9675 0.011065C10.8632 0.0292121 10.7639 0.0693047 10.6762 0.12869C10.5885 0.188076 10.5144 0.2654 10.4589 0.355547C10.4033 0.445694 10.3676 0.546608 10.3539 0.651613C10.3187 0.986076 10.1609 1.29566 9.91088 1.52068C9.66087 1.74569 9.33639 1.87021 9 1.87021C8.66361 1.87021 8.33913 1.74569 8.08912 1.52068C7.83912 1.29566 7.68129 0.986076 7.64607 0.651613C7.6318 0.550574 7.597 0.453524 7.54381 0.366436C7.49061 0.279348 7.42016 0.204065 7.33677 0.14522C7.25339 0.0863742 7.15884 0.0452117 7.05895 0.0242655C6.95906 0.00331923 6.85593 0.00303247 6.75593 0.0234228C5.88498 0.245769 5.05095 0.593407 4.27996 1.05545C4.18908 1.10957 4.11071 1.18235 4.05003 1.26898C3.98935 1.35561 3.94774 1.45413 3.92794 1.55802C3.90815 1.66191 3.91062 1.76882 3.9352 1.87169C3.95977 1.97456 4.0059 2.07105 4.07052 2.15478C4.28259 2.41615 4.39029 2.7468 4.37282 3.08289C4.35534 3.41899 4.21394 3.7367 3.9759 3.97467C3.73787 4.21265 3.42009 4.35402 3.08391 4.37149C2.74773 4.38896 2.417 4.28129 2.15557 4.06926C2.07182 4.00466 1.97531 3.95855 1.87242 3.93398C1.76952 3.90941 1.66259 3.90694 1.55867 3.92672C1.45475 3.94651 1.35621 3.98811 1.26956 4.04878C1.18291 4.10945 1.11011 4.1878 1.05598 4.27866C0.593823 5.04946 0.246102 5.88329 0.0237019 6.75403C-0.00277173 6.85665 -0.00712563 6.96373 0.0109288 7.06816C0.0289833 7.17259 0.0690336 7.272 0.128425 7.35978C0.18795 7.4474 0.265411 7.52137 0.355679 7.57681C0.445947 7.63224 0.546964 7.66788 0.652043 7.68135C0.986586 7.71656 1.29625 7.87435 1.52132 8.12429C1.74639 8.37424 1.87093 8.69864 1.87093 9.03495C1.87093 9.37126 1.74639 9.69567 1.52132 9.94561C1.29625 10.1956 0.986586 10.3533 0.652043 10.3886C0.546964 10.402 0.445947 10.4377 0.355679 10.4931C0.265411 10.5485 0.18795 10.6225 0.128425 10.7101C0.0690336 10.7979 0.0289833 10.8973 0.0109288 11.0017C-0.00712563 11.1062 -0.00277173 11.2133 0.0237019 11.3159C0.242448 12.1725 0.582495 12.9934 1.03354 13.7539C1.08767 13.8447 1.16047 13.9231 1.24712 13.9837C1.33377 14.0444 1.43231 14.086 1.53623 14.1058C1.64015 14.1256 1.74708 14.1231 1.84998 14.0985C1.95287 14.074 2.04938 14.0279 2.13313 13.9632C2.39456 13.7512 2.72529 13.6436 3.06147 13.661C3.39765 13.6785 3.71543 13.8199 3.95346 14.0578C4.1915 14.2958 4.3329 14.6135 4.35037 14.9496C4.36785 15.2857 4.26015 15.6164 4.04808 15.8777C3.98345 15.9615 3.93733 16.058 3.91276 16.1608C3.88818 16.2637 3.88571 16.3706 3.9055 16.4745C3.9253 16.5784 3.96691 16.6769 4.02759 16.7635C4.08827 16.8502 4.16664 16.9229 4.25752 16.9771C5.03762 17.4281 5.87925 17.7631 6.75593 17.9717C6.85852 17.998 6.96553 18.0022 7.06987 17.9841C7.17421 17.9659 7.27351 17.9258 7.3612 17.8664C7.44888 17.807 7.52296 17.7297 7.57851 17.6396C7.63407 17.5494 7.66985 17.4485 7.68348 17.3435C7.71869 17.009 7.87652 16.6995 8.12652 16.4744C8.37653 16.2494 8.70101 16.1249 9.0374 16.1249C9.37379 16.1249 9.69827 16.2494 9.94828 16.4744C10.1983 16.6995 10.3561 17.009 10.3913 17.3435C10.4048 17.4486 10.4404 17.5496 10.4959 17.6398C10.5513 17.73 10.6253 17.8075 10.713 17.867C10.8368 17.9502 10.9827 17.9945 11.1319 17.9941C11.194 18.002 11.2568 18.002 11.3189 17.9941C12.1757 17.7754 12.9968 17.4355 13.7574 16.9845C13.8483 16.9304 13.9267 16.8576 13.9874 16.771C14.0481 16.6844 14.0897 16.5859 14.1095 16.482C14.1293 16.3781 14.1268 16.2712 14.1022 16.1683C14.0776 16.0654 14.0315 15.9689 13.9669 15.8852C13.7548 15.6238 13.6471 15.2932 13.6646 14.9571C13.6821 14.621 13.8235 14.3033 14.0615 14.0653C14.2995 13.8273 14.6173 13.686 14.9535 13.6685C15.2897 13.651 15.6204 13.7587 15.8818 13.9707C15.9656 14.0353 16.0621 14.0814 16.165 14.106C16.2679 14.1306 16.3748 14.1331 16.4787 14.1133C16.5826 14.0935 16.6812 14.0519 16.7678 13.9912C16.8545 13.9305 16.9273 13.8522 16.9814 13.7613C17.4312 12.9861 17.7663 12.1498 17.9763 11.2785C18.0028 11.1759 18.0071 11.0688 17.9891 10.9644C17.971 10.8599 17.931 10.7605 17.8716 10.6727C17.8096 10.5824 17.7286 10.5068 17.6343 10.4513C17.5399 10.3957 17.4345 10.3615 17.3255 10.3512V10.3736ZM15.994 12.3404C15.4813 12.1503 14.9247 12.1113 14.3904 12.228C13.8561 12.3447 13.3665 12.6122 12.9798 12.9989C12.5931 13.3855 12.3255 13.8749 12.2087 14.4091C12.092 14.9433 12.131 15.4997 12.3212 16.0123C12.0781 16.1269 11.8283 16.2268 11.5732 16.3115C11.3471 15.8128 10.982 15.3898 10.5216 15.0932C10.0613 14.7965 9.52523 14.6388 8.97756 14.6388C8.42988 14.6388 7.89381 14.7965 7.43348 15.0932C6.97315 15.3898 6.60807 15.8128 6.38191 16.3115C6.12682 16.2268 5.87703 16.1269 5.63389 16.0123C5.82408 15.4997 5.86312 14.9433 5.74638 14.4091C5.62964 13.8749 5.36202 13.3855 4.97531 12.9989C4.58859 12.6122 4.09902 12.3447 3.56472 12.228C3.03043 12.1113 2.47385 12.1503 1.96109 12.3404C1.84888 12.1011 1.75164 11.8618 1.66188 11.5926C2.16068 11.3665 2.58375 11.0015 2.88047 10.5413C3.1772 10.0811 3.335 9.5451 3.335 8.99756C3.335 8.45002 3.1772 7.91407 2.88047 7.45385C2.58375 6.99363 2.16068 6.62864 1.66188 6.40254C1.75164 6.15575 1.84888 5.91644 1.96109 5.65469C2.47385 5.84484 3.03043 5.88387 3.56472 5.76716C4.09902 5.65045 4.58859 5.38289 4.97531 4.99627C5.36202 4.60965 5.62964 4.12019 5.74638 3.58603C5.86312 3.05186 5.82408 2.49542 5.63389 1.98278C5.87703 1.86822 6.12682 1.76833 6.38191 1.68364C6.60807 2.18232 6.97315 2.60529 7.43348 2.90194C7.89381 3.19859 8.42988 3.35636 8.97756 3.35636C9.52523 3.35636 10.0613 3.19859 10.5216 2.90194C10.982 2.60529 11.3471 2.18232 11.5732 1.68364C11.8283 1.76833 12.0781 1.86822 12.3212 1.98278C12.131 2.49542 12.092 3.05186 12.2087 3.58603C12.3255 4.12019 12.5931 4.60965 12.9798 4.99627C13.3665 5.38289 13.8561 5.65045 14.3904 5.76716C14.9247 5.88387 15.4813 5.84484 15.994 5.65469C16.1062 5.894 16.2035 6.13331 16.2932 6.40254C15.7944 6.62864 15.3714 6.99363 15.0746 7.45385C14.7779 7.91407 14.6201 8.45002 14.6201 8.99756C14.6201 9.5451 14.7779 10.0811 15.0746 10.5413C15.3714 11.0015 15.7944 11.3665 16.2932 11.5926C16.2035 11.8394 16.1062 12.0787 15.994 12.318V12.3404Z" fill="white"/>
</svg>
