<svg width="28" height="28" viewBox="0 0 28 28" fill="none" xmlns="http://www.w3.org/2000/svg">
<path d="M4.03123 13.7518C3.90833 13.7518 3.78685 13.7137 3.68439 13.6404C3.52812 13.5286 3.43542 13.3482 3.43542 13.156V10.5579C3.43542 10.3353 3.55952 10.1314 3.75707 10.0289L13.7854 4.83274C13.9582 4.74326 14.1639 4.7438 14.3362 4.83405L24.2453 10.0303C24.4415 10.1331 24.5644 10.3363 24.5644 10.5578V13.1559C24.5644 13.3534 24.4666 13.538 24.3032 13.6489C24.14 13.7597 23.9323 13.7826 23.7487 13.7096L20.631 12.4714C20.6259 12.4694 20.6208 12.4672 20.6157 12.4651L14.0643 9.64957L7.3923 12.6383C7.37544 12.6459 7.35823 12.6527 7.34077 12.6586L4.22318 13.72C4.16057 13.7413 4.09575 13.7518 4.03123 13.7518ZM4.62697 10.9202V12.3239L6.93072 11.5396L13.816 8.45534C13.9681 8.38725 14.1418 8.38594 14.2948 8.45171L21.0786 11.3672L23.373 12.2784V10.9182L14.0579 6.03352L4.62697 10.9202Z" fill="white"/>
<path d="M16.8827 25.0213H11.3191C10.9901 25.0213 10.7234 24.7545 10.7234 24.4255V18.8669C10.7234 17.4629 11.6071 16.1905 12.9225 15.7007C13.2309 15.586 13.5739 15.7429 13.6887 16.0512C13.8035 16.3596 13.6466 16.7026 13.3383 16.8174C12.4869 17.1344 11.9149 17.958 11.9149 18.8669V23.8298H16.287V18.8669C16.287 17.9579 15.715 17.1344 14.8636 16.8174C14.5553 16.7026 14.3984 16.3596 14.5132 16.0513C14.628 15.7429 14.971 15.5858 15.2793 15.7009C16.5947 16.1906 17.4784 17.4629 17.4784 18.8669V24.4255C17.4785 24.7545 17.2117 25.0213 16.8827 25.0213Z" fill="white"/>
<path d="M13.5049 16.0851C13.5049 15.7562 13.7718 15.4894 14.1007 15.4894C14.4301 15.4894 14.6964 15.7562 14.6964 16.0851C14.6964 16.414 14.4301 16.6809 14.1007 16.6809C13.7718 16.6809 13.5049 16.414 13.5049 16.0851Z" fill="white"/>
<path d="M26.2127 28H17.2766C16.9476 28 16.6808 27.7332 16.6808 27.4043C16.6808 27.0753 16.9476 26.8085 17.2766 26.8085H25.617V23.234H21.4468V24.4255C21.4468 24.7545 21.18 25.0213 20.851 25.0213H7.14891C6.81988 25.0213 6.55317 24.7545 6.55317 24.4255V23.234H2.38296V26.8085H10.7234C11.0524 26.8085 11.3191 27.0753 11.3191 27.4043C11.3191 27.7332 11.0524 28 10.7234 28H1.78721C1.45818 28 1.19147 27.7332 1.19147 27.4043V22.6383C1.19147 22.3093 1.45818 22.0426 1.78721 22.0426H7.14891C7.47794 22.0426 7.74466 22.3093 7.74466 22.6383V23.8298H20.2553V22.6383C20.2553 22.3093 20.5221 22.0426 20.851 22.0426H26.2127C26.5417 22.0426 26.8085 22.3093 26.8085 22.6383V27.4043C26.8085 27.7332 26.5417 28 26.2127 28Z" fill="white"/>
<path d="M16.6808 27.4043C16.6808 27.0753 16.9477 26.8085 17.2766 26.8085C17.6054 26.8085 17.8723 27.0753 17.8723 27.4043C17.8723 27.7331 17.6054 28 17.2766 28C16.9477 28 16.6808 27.7331 16.6808 27.4043ZM13.4042 27.4043C13.4042 27.0753 13.6711 26.8085 14 26.8085C14.3288 26.8085 14.5957 27.0753 14.5957 27.4043C14.5957 27.7331 14.3288 28 14 28C13.6711 28 13.4042 27.7331 13.4042 27.4043Z" fill="white"/>
<path d="M20.8511 25.0213H7.14897C6.81994 25.0213 6.55322 24.7545 6.55322 24.4255V12.0947C6.55322 11.8599 6.69114 11.647 6.90543 11.551L13.8161 8.4554C13.9682 8.38725 14.1418 8.38594 14.2948 8.45171L21.0863 11.3704C21.3051 11.4645 21.4468 11.6797 21.4468 11.9178V24.4255C21.4468 24.7545 21.1801 25.0213 20.8511 25.0213ZM7.74471 23.8298H20.2553V12.3102L14.0646 9.64963L7.74471 12.4806V23.8298Z" fill="white"/>
<path d="M25.0213 23.234H22.6383C22.3093 23.234 22.0425 22.9673 22.0425 22.6383V17.2766C22.0425 17.1589 22.0773 17.044 22.1426 16.9461L23.3341 15.1589C23.4446 14.9932 23.6306 14.8936 23.8298 14.8936C24.0289 14.8936 24.215 14.9932 24.3254 15.1589L25.5169 16.9461C25.5822 17.044 25.617 17.1589 25.617 17.2766V22.6383C25.617 22.9673 25.3502 23.234 25.0213 23.234ZM23.234 22.0426H24.4255V17.4569L23.8298 16.5633L23.234 17.4569V22.0426Z" fill="white"/>
<path d="M5.36166 23.234H2.97868C2.64965 23.234 2.38293 22.9673 2.38293 22.6383V17.2766C2.38293 17.1589 2.41773 17.044 2.48302 16.9461L3.67451 15.1589C3.78496 14.9932 3.97095 14.8936 4.17017 14.8936C4.36939 14.8936 4.55538 14.9932 4.66583 15.1589L5.85732 16.9461C5.92255 17.044 5.9574 17.1589 5.9574 17.2766V22.6383C5.9574 22.9673 5.69069 23.234 5.36166 23.234ZM3.57442 22.0426H4.76591V17.4569L4.17017 16.5633L3.57442 17.4569V22.0426Z" fill="white"/>
<path d="M26.2128 4.76596H22.6383C21.8616 4.76596 21.199 4.26797 20.9532 3.57447H18.4681C17.4826 3.57447 16.6808 2.77271 16.6808 1.78723C16.6808 0.801753 17.4826 0 18.4681 0H22.0425C22.8192 0 23.4818 0.497983 23.7277 1.19149H26.2128C27.1982 1.19149 28 1.99324 28 2.97872C28 3.9642 27.1982 4.76596 26.2128 4.76596ZM18.4681 1.19149C18.1396 1.19149 17.8723 1.45874 17.8723 1.78723C17.8723 2.11573 18.1396 2.38298 18.4681 2.38298H21.4468C21.7758 2.38298 22.0425 2.64969 22.0425 2.97872C22.0425 3.30722 22.3098 3.57447 22.6383 3.57447H26.2128C26.5413 3.57447 26.8085 3.30722 26.8085 2.97872C26.8085 2.65023 26.5413 2.38298 26.2128 2.38298H23.234C22.9051 2.38298 22.6383 2.11626 22.6383 1.78723C22.6383 1.45874 22.371 1.19149 22.0425 1.19149H18.4681Z" fill="white"/>
<path d="M4.76595 7.14894C4.36383 7.14894 3.97361 7.0703 3.60664 6.91481C3.25157 6.76468 2.93344 6.55021 2.66 6.27617C2.38595 6.00272 2.17149 5.6846 2.02136 5.32953C1.86587 4.96255 1.78723 4.57234 1.78723 4.17021C1.78723 3.76868 1.86587 3.37966 2.02076 3.01268C2.1703 2.65881 2.38417 2.34068 2.65642 2.06723C2.92927 1.79379 3.24681 1.57872 3.60008 1.428C3.96647 1.27251 4.35549 1.19268 4.75642 1.19149H4.75881C5.08587 1.19149 5.35336 1.45779 5.35455 1.78545C5.35515 2.1137 5.08885 2.38179 4.76059 2.38298C3.77761 2.38536 2.97813 3.18723 2.97872 4.17021C2.98051 5.15379 3.78238 5.95566 4.76595 5.95745C5.74953 5.95566 6.5514 5.15379 6.55319 4.17021V4.16306C6.552 3.83421 6.8177 3.56613 7.14655 3.56434H7.14893C7.476 3.56434 7.74289 3.83004 7.74468 4.15711V4.1577C7.74468 4.15889 7.74468 4.16068 7.74468 4.16187V4.17021C7.74468 4.57234 7.66604 4.96255 7.51055 5.32953C7.36042 5.6846 7.14536 6.00272 6.87191 6.27617C6.59847 6.55021 6.28034 6.76468 5.92527 6.91481C5.5583 7.0703 5.16808 7.14894 4.76595 7.14894ZM6.44476 3.07464V3.07166V3.07464C6.28629 3.07464 6.13736 3.01328 6.02536 2.90187C5.91217 2.78987 5.84961 2.64034 5.84902 2.48128C5.84842 2.32221 5.90978 2.17208 6.02178 2.05949C6.13498 1.9457 6.2851 1.88315 6.44476 1.88315C6.60323 1.88315 6.75217 1.94451 6.86476 2.05651C7.0977 2.28826 7.09889 2.66596 6.86774 2.89889C6.75515 3.01209 6.60502 3.07464 6.44476 3.07464Z" fill="white"/>
<path d="M9.53192 28H0.595745C0.266715 28 0 27.7332 0 27.4043C0 27.0753 0.266715 26.8085 0.595745 26.8085H9.53192C9.86094 26.8085 10.1277 27.0753 10.1277 27.4043C10.1277 27.7332 9.86094 28 9.53192 28Z" fill="white"/>
<path d="M17.8723 27.4043C17.8723 27.0753 18.1392 26.8085 18.4681 26.8085C18.7969 26.8085 19.0638 27.0753 19.0638 27.4043C19.0638 27.7331 18.7969 28 18.4681 28C18.1392 28 17.8723 27.7331 17.8723 27.4043ZM13.4042 27.4043C13.4042 27.0753 13.6711 26.8085 14 26.8085C14.3288 26.8085 14.5957 27.0753 14.5957 27.4043C14.5957 27.7331 14.3288 28 14 28C13.6711 28 13.4042 27.7331 13.4042 27.4043Z" fill="white"/>
<path d="M27.4042 28H18.4681C18.1391 28 17.8723 27.7332 17.8723 27.4043C17.8723 27.0753 18.1391 26.8085 18.4681 26.8085H27.4042C27.7332 26.8085 28 27.0753 28 27.4043C28 27.7332 27.7332 28 27.4042 28Z" fill="white"/>
</svg>
