<svg width="31" height="31" viewBox="0 0 31 31" fill="none" xmlns="http://www.w3.org/2000/svg">
<g clip-path="url(#clip0)">
<path d="M29.4102 5.16666H1.58978C0.715361 5.16666 0 5.88202 0 6.75638V24.2436C0 25.1179 0.715361 25.8334 1.58978 25.8334H29.4103C30.2846 25.8334 31.0001 25.118 31.0001 24.2436V6.75638C31 5.88202 30.2846 5.16666 29.4102 5.16666ZM28.8137 6.35889L16.4145 15.659C16.1916 15.8287 15.8494 15.9348 15.4999 15.9332C15.1506 15.9348 14.8084 15.8287 14.5854 15.659L2.18629 6.35889H28.8137ZM22.1904 16.2726L28.9469 24.6189C28.9536 24.6272 28.9619 24.6336 28.9691 24.6411H2.03086C2.03801 24.6332 2.04636 24.6272 2.05314 24.6189L8.80957 16.2726C9.01658 16.0167 8.97735 15.6415 8.72093 15.434C8.465 15.227 8.08979 15.2662 7.88272 15.5222L1.19229 23.7869V7.1041L13.8704 16.6127C14.347 16.9677 14.9268 17.1239 15.4999 17.1255C16.0722 17.1242 16.6524 16.968 17.1293 16.6127L29.8075 7.1041V23.7868L23.1172 15.5222C22.9102 15.2663 22.5346 15.2269 22.279 15.434C22.0227 15.641 21.9833 16.0167 22.1904 16.2726Z" fill="#192A56"/>
</g>
<defs>
<clipPath id="clip0">
<rect width="31" height="31" fill="white"/>
</clipPath>
</defs>
</svg>
