<svg width="31" height="31" viewBox="0 0 31 31" fill="none" xmlns="http://www.w3.org/2000/svg">
<path d="M28.3247 26.1472L26.1056 22.4505C25.0826 20.7442 24.5414 18.7912 24.5414 16.8007V13.5625C24.5414 8.57797 20.4843 4.52084 15.4998 4.52084C10.5152 4.52084 6.4581 8.57797 6.4581 13.5625V16.8007C6.4581 18.7912 5.91687 20.7442 4.89387 22.4505L2.67477 26.1472C2.55465 26.3461 2.55204 26.5954 2.66575 26.7969C2.78073 26.9997 2.9964 27.1251 3.2289 27.1251H27.7705C28.003 27.1251 28.2188 26.9998 28.3337 26.7969C28.4474 26.5954 28.4449 26.3461 28.3247 26.1472ZM4.36948 25.8333L6.00085 23.1144C7.14525 21.2079 7.74975 19.025 7.74975 16.8007V13.5625C7.74975 9.28837 11.2256 5.81249 15.4998 5.81249C19.7739 5.81249 23.2498 9.28837 23.2498 13.5625V16.8007C23.2498 19.025 23.8543 21.2079 24.9974 23.1144L26.63 25.8333H4.36948Z" fill="#192A56"/>
<path d="M15.5001 0C14.0754 0 12.9167 1.15862 12.9167 2.58335V5.16671C12.9167 5.52315 13.2061 5.8125 13.5626 5.8125C13.9191 5.8125 14.2085 5.52315 14.2085 5.16665V2.58335C14.2085 1.87035 14.7871 1.29171 15.5001 1.29171C16.2131 1.29171 16.7918 1.87035 16.7918 2.58335V5.16671C16.7918 5.52315 17.0811 5.8125 17.4376 5.8125C17.7941 5.8125 18.0835 5.52315 18.0835 5.16665V2.58335C18.0835 1.15862 16.9248 0 15.5001 0Z" fill="#192A56"/>
<path d="M18.2951 26.1524C18.113 25.845 17.719 25.7442 17.4103 25.9211C17.1016 26.102 16.9983 26.4985 17.1791 26.8059C17.347 27.0914 17.4387 27.4337 17.4387 27.7708C17.4387 28.839 16.5695 29.7083 15.5012 29.7083C14.433 29.7083 13.5637 28.839 13.5637 27.7708C13.5637 27.4337 13.6555 27.0914 13.8234 26.8059C14.0029 26.4972 13.8996 26.1019 13.5921 25.9211C13.2809 25.7442 12.8881 25.8449 12.7074 26.1524C12.4219 26.6406 12.2708 27.1999 12.2708 27.7708C12.2708 29.552 13.7187 31 15.5 31C17.2812 31 18.7291 29.552 18.7317 27.7708C18.7317 27.1999 18.5806 26.6406 18.2951 26.1524Z" fill="#192A56"/>
</svg>
