<svg width="22" height="21" viewBox="0 0 22 21" fill="none" xmlns="http://www.w3.org/2000/svg">
<path d="M7.61047 15.6096C7.61047 15.8137 7.77535 15.979 7.97945 15.979H11.4084L7.86397 17.162C7.66918 17.2253 7.56475 17.4361 7.62802 17.6285C7.68023 17.785 7.82583 17.8827 7.97945 17.8827C8.01802 17.8827 8.05853 17.8757 8.09732 17.8643L13.8035 15.9608C13.9757 15.9041 14.0825 15.7299 14.0526 15.5505C14.0232 15.3717 13.8691 15.24 13.6878 15.24H7.97923C7.77535 15.2402 7.61047 15.4051 7.61047 15.6096Z" fill="white"/>
<path d="M13.4244 19.1539C13.4182 19.1606 12.5619 19.9967 10.8346 19.9967C9.90296 19.9967 9.22566 19.7568 8.79926 19.5322L13.803 17.8643C13.998 17.7986 14.102 17.588 14.0389 17.3954C13.9726 17.2006 13.7644 17.096 13.5694 17.162L7.86369 19.0631C7.74106 19.1038 7.64832 19.2059 7.61907 19.3302C7.58939 19.4552 7.62774 19.5865 7.71852 19.6769C7.76164 19.72 8.80142 20.7357 10.8344 20.7357C12.8646 20.7357 13.905 19.72 13.9483 19.6769C14.0933 19.5322 14.0933 19.2964 13.9483 19.1539C13.8032 19.0089 13.5696 19.0089 13.4244 19.1539Z" fill="white"/>
<path d="M10.8346 0.972672C7.48257 0.972672 4.7569 3.69856 4.7569 7.04801C4.7569 8.73173 5.663 10.0779 6.46098 11.2635C7.07718 12.1763 7.6104 12.9652 7.6104 13.7084C7.6104 13.9122 7.77528 14.0776 7.97938 14.0776C8.18348 14.0776 8.35118 13.9122 8.35118 13.7084C8.35118 12.7386 7.72978 11.8205 7.07502 10.8486C6.29783 9.69742 5.49573 8.5077 5.49573 7.04801C5.49573 4.10676 7.89098 1.71151 10.8348 1.71151C13.7765 1.71151 16.1713 4.10698 16.1713 7.04801C16.1713 8.5077 15.3669 9.6972 14.5921 10.8486C13.9371 11.8205 13.3185 12.7388 13.3185 13.7084C13.3185 13.9122 13.4836 14.0776 13.6877 14.0776C13.8916 14.0776 14.0573 13.9122 14.0573 13.7084C14.0573 12.9652 14.5897 12.1763 15.2059 11.2635C16.0039 10.0779 16.9102 8.73195 16.9102 7.04801C16.9102 3.69856 14.1836 0.972672 10.8346 0.972672Z" fill="white"/>
<path d="M11.2039 3.24314C11.2039 3.03925 11.0383 2.87372 10.8347 2.87372C8.53216 2.87372 6.6582 4.74789 6.6582 7.04781C6.6582 7.25429 6.82374 7.41961 7.0274 7.41961C7.23367 7.41961 7.3992 7.25429 7.3992 7.04781C7.3992 5.15587 8.94014 3.61472 10.8347 3.61472C11.0383 3.61472 11.2039 3.44702 11.2039 3.24314Z" fill="white"/>
<path d="M4.45983 2.8761C4.5257 2.92355 4.60283 2.9463 4.67758 2.9463C4.79307 2.9463 4.90422 2.8943 4.97658 2.79442C5.09662 2.6291 5.06022 2.39792 4.89512 2.27767L2.58588 0.5985C2.42035 0.478467 2.18938 0.516817 2.06913 0.68235C1.9491 0.845717 1.9855 1.07647 2.15081 1.1991L4.45983 2.8761Z" fill="white"/>
<path d="M16.9893 2.9463C17.0645 2.9463 17.1414 2.92355 17.2075 2.8761L19.5163 1.1991C19.6818 1.07647 19.7182 0.845717 19.5975 0.68235C19.4775 0.516817 19.2463 0.478467 19.0808 0.5985L16.7716 2.27767C16.6065 2.39792 16.5703 2.6291 16.6903 2.79442C16.7631 2.8943 16.874 2.9463 16.9893 2.9463Z" fill="white"/>
<path d="M21.2977 6.6786H18.4442C18.2381 6.6786 18.0728 6.84392 18.0728 7.0478C18.0728 7.25429 18.2381 7.41961 18.4442 7.41961H21.2977C21.5011 7.41961 21.6667 7.25429 21.6667 7.0478C21.6667 6.84414 21.5011 6.6786 21.2977 6.6786Z" fill="white"/>
<path d="M3.5945 7.04803C3.5945 6.84415 3.42897 6.67883 3.22487 6.67883H0.369417C0.16575 6.67862 0 6.84415 0 7.04803C0 7.25452 0.16575 7.41983 0.369417 7.41983H3.22487C3.42897 7.41962 3.5945 7.2543 3.5945 7.04803Z" fill="white"/>
<path d="M17.2075 11.2223C17.0413 11.1023 16.8101 11.1383 16.6903 11.304C16.5703 11.4695 16.6065 11.7005 16.7716 11.8205L19.0808 13.4975C19.1469 13.5454 19.224 13.5701 19.2985 13.5701C19.4121 13.5701 19.5254 13.5157 19.5975 13.4161C19.7182 13.2505 19.6818 13.0194 19.5163 12.8993L17.2075 11.2223Z" fill="white"/>
<path d="M4.45989 11.2223L2.15087 12.8993C1.98534 13.0194 1.94916 13.2505 2.06919 13.4161C2.14221 13.5157 2.25487 13.5701 2.36819 13.5701C2.44511 13.5701 2.52007 13.5454 2.58594 13.4975L4.89518 11.8205C5.06049 11.7005 5.09668 11.4695 4.97664 11.304C4.85639 11.1383 4.62521 11.1023 4.45989 11.2223Z" fill="white"/>
</svg>
