<svg width="27" height="27" viewBox="0 0 27 27" fill="none" xmlns="http://www.w3.org/2000/svg">
<path d="M25.6873 24.1552L18.2922 16.7601C19.7247 14.9907 20.5871 12.7424 20.5871 10.2936C20.5871 4.61804 15.9691 0 10.2935 0C4.61799 0 0 4.61799 0 10.2935C0 15.9691 4.61804 20.5871 10.2936 20.5871C12.7424 20.5871 14.9907 19.7247 16.7601 18.2922L24.1552 25.6873C24.3665 25.8986 24.6439 26.0048 24.9213 26.0048C25.1987 26.0048 25.4761 25.8986 25.6874 25.6873C26.111 25.2637 26.111 24.5789 25.6873 24.1552ZM10.2936 18.4201C5.81208 18.4201 2.16709 14.7751 2.16709 10.2935C2.16709 5.81203 5.81208 2.16703 10.2936 2.16703C14.7751 2.16703 18.4201 5.81203 18.4201 10.2935C18.4201 14.7751 14.7751 18.4201 10.2936 18.4201Z" fill="#798BDE"/>
</svg>
