<svg width="22" height="22" viewBox="0 0 22 22" fill="none" xmlns="http://www.w3.org/2000/svg">
<g clip-path="url(#clip0)">
<path d="M19.6681 20.1842C19.4885 20.1842 19.3239 20.0688 19.2636 19.8994C19.2044 19.7332 19.2544 19.541 19.3898 19.4271C19.5315 19.3079 19.7371 19.293 19.8947 19.39C20.0409 19.4801 20.1195 19.6555 20.0918 19.8249C20.0582 20.0296 19.8752 20.1842 19.6681 20.1842Z" fill="white"/>
<path d="M11 17.7305C10.7627 17.7305 10.5703 17.5381 10.5703 17.3008V14.077C10.5703 13.8396 10.7627 13.6473 11 13.6473C11.2373 13.6473 11.4297 13.8396 11.4297 14.077V17.3008C11.4297 17.5381 11.2373 17.7305 11 17.7305Z" fill="white"/>
<path d="M21.5703 12.2342H15.3823V11.0883C15.3823 10.851 15.19 10.6586 14.9526 10.6586H7.04738C6.81004 10.6586 6.61769 10.851 6.61769 11.0883V13.3784H0.429688C0.192352 13.3784 0 13.5707 0 13.8081V19.7547C0 19.9921 0.192352 20.1844 0.429688 20.1844H17.7325C17.9698 20.1844 18.1622 19.9921 18.1622 19.7547C18.1622 19.5174 17.9698 19.325 17.7325 19.325H15.3823V13.0936H21.1406V19.7547C21.1406 19.9921 21.333 20.1844 21.5703 20.1844C21.8076 20.1844 22 19.9921 22 19.7547V12.6639C22 12.4265 21.8076 12.2342 21.5703 12.2342ZM0.859375 14.2378H6.61769V19.325H0.859375V14.2378ZM7.47707 11.518H14.5229V19.3249H7.47707V11.518Z" fill="white"/>
<path d="M4.71668 11.147C4.62453 11.147 4.53171 11.1289 4.44309 11.0921L3.73863 10.8003L3.03401 11.0921C2.80373 11.1877 2.54558 11.1571 2.34383 11.0106C2.14191 10.8639 2.03314 10.6279 2.05278 10.3793L2.11287 9.61896L1.61739 9.03905C1.45525 8.84938 1.40456 8.59459 1.4816 8.35742C1.55881 8.12009 1.74948 7.94368 1.99219 7.8856L2.73374 7.70769L3.1322 7.05728C3.26245 6.84462 3.48921 6.71773 3.73863 6.71773C3.98805 6.71773 4.21482 6.84462 4.34506 7.05728L4.74337 7.70769L5.48508 7.8856C5.72762 7.94368 5.91846 8.12009 5.9955 8.35742C6.07254 8.59459 6.02185 8.84938 5.85988 9.03905L5.36457 9.61896L5.42449 10.3793C5.44412 10.6279 5.33536 10.8639 5.13344 11.0106C5.00923 11.1007 4.86371 11.147 4.71668 11.147ZM2.42792 8.66475L2.88178 9.19615C2.9558 9.28276 2.99239 9.39539 2.98349 9.50902L2.92844 10.2056L3.57398 9.93803C3.67938 9.89439 3.79772 9.89439 3.90296 9.93803L4.5485 10.2056L4.49361 9.50902C4.48471 9.39539 4.5213 9.28276 4.59532 9.19615L5.04918 8.66475L4.36974 8.50177C4.25879 8.47525 4.16312 8.40559 4.10353 8.30841L3.73847 7.71255L3.37357 8.30841C3.31398 8.40559 3.21814 8.47525 3.10736 8.50177L2.42792 8.66475ZM5.2845 8.72131H5.28484H5.2845Z" fill="white"/>
<path d="M17.2835 11.147C17.1363 11.147 16.9908 11.1007 16.8666 11.0106C16.6649 10.8639 16.5561 10.6279 16.5757 10.3793L16.6357 9.61896L16.1403 9.03922C15.9782 8.84938 15.9275 8.59459 16.0047 8.35742C16.0818 8.12009 16.2726 7.94368 16.5151 7.88561L17.2567 7.70769L17.6552 7.05728C17.7854 6.84462 18.0122 6.71773 18.2614 6.71773C18.511 6.71756 18.7376 6.84462 18.868 7.05728V7.05745L19.2665 7.70769L20.008 7.88561C20.2506 7.94385 20.4414 8.12026 20.5185 8.35742C20.5957 8.59476 20.5448 8.84955 20.3828 9.03922L19.8875 9.61896L19.9474 10.3793C19.9671 10.6281 19.8583 10.864 19.6566 11.0106C19.4546 11.1571 19.1967 11.1877 18.9662 11.0922L18.2616 10.8003L17.5571 11.0922C17.4683 11.1289 17.3755 11.147 17.2835 11.147ZM18.2614 9.90531C18.3175 9.90531 18.3734 9.91622 18.4259 9.93804L19.0716 10.2056L19.0166 9.50902C19.0077 9.39539 19.0443 9.28276 19.1183 9.19615L19.5721 8.66475L18.8927 8.50177C18.7817 8.47525 18.6861 8.4056 18.6265 8.30841L18.2614 7.71239L17.8965 8.30841C17.8369 8.4056 17.7413 8.47525 17.6303 8.50177L16.9507 8.66475L17.4047 9.19599C17.4788 9.28276 17.5153 9.39522 17.5064 9.50902L17.4514 10.2056L18.0969 9.93804C18.1496 9.91622 18.2055 9.90531 18.2614 9.90531Z" fill="white"/>
<path d="M9.28646 8.92038C9.09545 8.92038 8.90663 8.86029 8.74549 8.7433C8.48365 8.55296 8.34249 8.24664 8.36784 7.92387L8.48348 6.4579L7.52827 5.33987C7.31796 5.09364 7.25216 4.76299 7.3522 4.45499C7.45223 4.14716 7.69981 3.91821 8.01469 3.84268L9.44474 3.4996L10.2128 2.24562C10.382 1.96951 10.6762 1.80469 11 1.80469C11.3236 1.80469 11.618 1.96951 11.787 2.24562L12.5551 3.4996L13.9852 3.84268C14.3 3.91821 14.5478 4.14716 14.6478 4.45499C14.7479 4.76299 14.6819 5.09364 14.4716 5.33987L13.5164 6.4579L13.632 7.92387C13.6575 8.24664 13.5164 8.55296 13.2544 8.74313C12.9925 8.93347 12.6575 8.97308 12.3584 8.84921L11 8.28625L9.64146 8.84921C9.52631 8.89688 9.40597 8.92038 9.28646 8.92038ZM11 2.66406C10.9644 2.66406 10.9503 2.68689 10.9456 2.69444L10.0846 4.10033C10.025 4.19751 9.92931 4.26717 9.81837 4.29369L8.21526 4.67839C8.20654 4.6804 8.18052 4.68661 8.16944 4.72052C8.15853 4.75443 8.17582 4.7749 8.1817 4.78162L9.25256 6.03493C9.32675 6.1217 9.36317 6.23433 9.35427 6.34796L9.22453 7.99152C9.22386 8.00024 9.22184 8.0271 9.25071 8.04808C9.27958 8.06906 9.30425 8.05865 9.31248 8.0553L10.8355 7.42403C10.9409 7.38039 11.0591 7.38039 11.1645 7.42403L12.6875 8.0553C12.6958 8.05865 12.7204 8.06906 12.7493 8.04808C12.7782 8.0271 12.7762 8.00024 12.7753 7.99152L12.6457 6.34796C12.6367 6.23433 12.6733 6.1217 12.7473 6.03493L13.8183 4.78162C13.824 4.7749 13.8415 4.75443 13.8304 4.72052C13.8195 4.68661 13.7933 4.6804 13.7848 4.67839L12.1815 4.29369C12.0707 4.26717 11.9749 4.19751 11.9154 4.10033L11.0542 2.69444C11.0497 2.68689 11.0356 2.66406 11 2.66406Z" fill="white"/>
</g>
<defs>
<clipPath id="clip0">
<rect width="22" height="22" fill="white"/>
</clipPath>
</defs>
</svg>
