<svg width="23" height="23" viewBox="0 0 23 23" fill="none" xmlns="http://www.w3.org/2000/svg">
<path d="M22.5635 21.1445L16.1156 14.6966C17.3646 13.1539 18.1166 11.1935 18.1166 9.05842C18.1166 4.10985 14.0901 0.0833435 9.14154 0.0833435C4.19297 0.0833435 0.166504 4.10981 0.166504 9.05838C0.166504 14.0069 4.19302 18.0335 9.14158 18.0335C11.2767 18.0335 13.237 17.2815 14.7798 16.0325L21.2277 22.4804C21.4119 22.6646 21.6537 22.7572 21.8956 22.7572C22.1375 22.7572 22.3793 22.6646 22.5636 22.4804C22.9329 22.111 22.9329 21.5139 22.5635 21.1445ZM9.14158 16.144C5.23411 16.144 2.05601 12.9659 2.05601 9.05838C2.05601 5.1509 5.23411 1.9728 9.14158 1.9728C13.0491 1.9728 16.2272 5.1509 16.2272 9.05838C16.2272 12.9659 13.049 16.144 9.14158 16.144Z" fill="#192A56"/>
</svg>
